<?xml version="1.0" encoding="utf-8"?>
<!-- Generator: Adobe Illustrator 18.1.1, SVG Export Plug-In . SVG Version: 6.00 Build 0)  -->
<svg version="1.1" id="Layer_1" xmlns="http://www.w3.org/2000/svg" xmlns:xlink="http://www.w3.org/1999/xlink" x="0px" y="0px"
	 viewBox="274.3 0 63.3 95" enable-background="new 274.3 0 63.3 95" xml:space="preserve">
<g>
	<path fill="#77787B" d="M327.1,65.8h-2.6c-0.4,0.2-0.3,0.9-0.3,0.9s0,11.9,0,13.2c0,1.2,0.6,1.1,0.6,1.1s1.3,0,2.1,0
		c0.8,0,0.8-0.7,0.8-0.7s0-12.7,0-13.5C327.5,65.8,327.1,65.8,327.1,65.8z"/>
	<rect x="314.7" y="48.3" fill="#77787B" width="3.5" height="1.3"/>
	<polygon fill="#77787B" points="314.8,47.7 318.1,47.7 316.4,42.4 	"/>
	<path fill="#77787B" d="M305.9,59.1c-5.1,1.1-5.8,6.3-5.8,6.3h11C310.6,60.5,305.9,59.1,305.9,59.1z"/>
	<path fill="#77787B" d="M292.2,67c0-1-0.9-0.9-0.9-0.9s-5.4,0.1-6.3,0c-0.9,0-0.8,0.8-0.8,0.8s0,12.5,0,13.5s0.7,0.9,0.7,0.9
		s1.4,0,2.1,0c0.7,0,0.6-0.7,0.6-0.7v-11h1.2v5h-0.6V78c0,0,2.3,0,3.2,0s0.8-0.8,0.8-0.8S292.2,68,292.2,67z"/>
	<path fill="#77787B" d="M304,13.8c-0.2,0.2-0.3,0.4-0.3,0.7c0,0.1,0,0.2,0,0.3s0.1,0.2,0.1,0.2h0.1c0,0,0.2-0.1,0.4-0.2
		c-0.1,0.1-0.1,0.3-0.1,0.4c0,0.2,0,0.4,0,0.5v0.1l0.1-0.1c0.6-0.5,0.9-0.1,1,0c0,0.3,0,2.9,0,3.3c-0.4,0.5-0.2,0.6-0.1,0.7
		c0.4,0.2,1,0.1,1.2,0c0.2-0.1,0.2-0.3,0.2-0.5c0-0.1-0.1-0.3-0.2-0.3c0-0.4,0-2.9,0-3.4c0.1-0.2,0.2-0.2,0.3-0.2
		c0.2,0,0.4,0.1,0.5,0.2h0.1c0.2-0.2,0.1-0.5,0-0.7c-0.1-0.1-0.1-0.2-0.2-0.3c0,0,0,0,0.1,0s0.3,0.1,0.5,0.3l0.1,0.1v-0.1
		c0.1-0.4,0-0.8-0.1-1c-0.1-0.1-0.2-0.2-0.2-0.3c0.1,0,0.2,0,0.3,0h0.1l-0.1-0.1c-0.3-0.4-0.6-0.6-0.7-0.6c0-0.1,0.1-0.1,0.3-0.2
		h0.1l-0.1-0.1c-0.9-1.1-1.7-0.9-1.7-0.9c-1.5,0.4-1.5,0.8-1.5,0.8s0,0.1,0.2,0.3c-0.9,0.4-0.7,0.9-0.7,1
		C303.7,13.7,303.8,13.8,304,13.8z"/>
	<path fill="#77787B" d="M311.7,67c0-1.1-0.8-1-0.8-1h-10.2c-0.8,0.1-0.8,0.8-0.8,0.8v7.7h-3V50.2h-3.5c0,0,0,25.4,0,26.7
		c0,1.2,0.8,1.1,0.8,1.1H311c0.8,0,0.7-1.1,0.7-1.1S311.7,67,311.7,67z M307.9,74.5h-3.8v-2.8c0,0,0.1-1.6,1.8-2.4
		c0,0,1.7,0.7,2,2.4V74.5z"/>
	<path fill="#77787B" d="M322.8,66.8c0-0.8-0.5-1-0.5-1h-2.2c-0.7,0.1-0.6,0.8-0.6,0.8v7.9h-1.2V50.1h-3.5v24.4h-1
		c-1-0.1-0.8,0.6-0.8,0.6s0,0.9,0,1.9s0.7,1,0.7,1s7.7,0,8.6,0s0.7-1.1,0.7-1.1V66.8H322.8z M317.5,75.8h-0.8v0.5h0.8v0.5h-2v-0.5
		h0.7v-1h1.4L317.5,75.8L317.5,75.8z"/>
	<path fill="#77787B" d="M291.1,35.6c0,0,7.4-2.4,8.7-2.7c4.5-1.3,5.6,2.4,5.6,2.4h1c1.5-3.8,5.3-2.5,5.3-2.5s8.7,2.4,9.1,2.4
		c0.4,0.1,0.4-0.3,0.4-0.3s-6.5-6.8-7.5-7.8c-1.3,0.1-2.5-0.3-2.5-0.3c-1.3-0.4-2.9-0.6-2.9-0.6c-1.7-0.1-2.3,1.3-2.3,1.3
		c-1.2-2-3.4-1.1-4-0.9c-0.9,0.2-3.4,0.6-3.4,0.6l-7.8,7.8C290.5,35.6,291.1,35.6,291.1,35.6z M306.2,27.7c0,0,1-1.8,3.9-0.8
		c0,0,2.2,0.6,3.2,0.6c0.7,0.7,6,6.2,6,6.2l-8.2-2.1c0,0-2.6-1-4.9,1.9V27.7z M298.5,27.5c1.8-0.1,3.6-0.6,3.6-0.6
		c2.8-0.9,3.6,1,3.6,1v5.6c-1.9-2.5-4.2-2-4.2-2l-9,2.6C292.4,34.1,298,28,298.5,27.5z"/>
	<path fill="#77787B" d="M302.8,23.8c-0.2-0.2-0.7-0.8-1.1,0.1c0,0.2-0.2,0.7,0.6,1c0.1,0,1,0.3,1.9-0.5c0.2,0.3,0.7,0.7,1.1,0.1
		c0-0.1,0.1-0.6-0.6-0.6c-0.1,0-0.3-0.1,0-0.3c0.1-0.1,0.6-0.7,1.3-1.3c0.7,0.7,1.2,1.2,1.3,1.3c0.3,0.2,0.1,0.3,0,0.3
		c-0.7,0-0.6,0.5-0.6,0.6c0.4,0.6,0.8,0.2,1.1-0.1c0.9,0.9,1.8,0.6,1.9,0.5c0.8-0.3,0.6-0.8,0.6-1c-0.3-0.9-0.9-0.3-1.1-0.1
		c-0.5,0.3-0.7-0.1-0.7-0.3c0.8-0.2,0.5-0.7,0.4-0.8c-0.6-0.5-0.8,0.3-0.9,0.5c-0.5-0.6-0.9-1.1-1.3-1.5c0.9-0.7,2.2-1.4,3.7-1.6
		c0,0-1.7-1-4.3,1.1c-2.6-2.2-4.3-1.1-4.3-1.1c1.6,0.2,2.8,0.9,3.7,1.6c-0.4,0.4-0.9,0.9-1.3,1.5c-0.1-0.1-0.4-1-0.9-0.5
		c-0.2,0.2-0.4,0.6,0.4,0.8C303.5,23.7,303.3,24.1,302.8,23.8z"/>
	<rect x="293.4" y="48.3" fill="#77787B" width="3.5" height="1.3"/>
	<polygon fill="#77787B" points="293.5,47.7 296.8,47.7 295.1,42.4 	"/>
	<g>
		<path fill="#77787B" d="M330.8,32.2c0,0-22.1-22.9-23.5-24.2c-1.4-1.4-2.6,0-2.6,0s-22,23.3-23.1,24.5c-1.1,1.1-0.9,1.8-0.9,1.8
			V86c0,1.5,1.5,1.5,1.5,1.5s45.7,0,47.4,0c1.7,0,1.7-1.8,1.7-1.8s0-50.7,0-51.9C331.4,32.7,330.8,32.2,330.8,32.2z M330.5,85.1
			c0,0,0,1.5-1.4,1.6h-46.4c0,0-1,0.2-1.2-1.4l0.1-50c0,0-0.1-1.4,0.9-2.4c0.9-1,22.7-23.8,22.7-23.8s0.9-0.9,1.9,0.1
			c1.1,1,22.6,23.3,22.6,23.3s0.8,0.7,0.9,1.9C330.5,35.5,330.5,85.1,330.5,85.1z"/>
		<path fill="#77787B" d="M336.8,29.4L310.4,1.7c0,0-1.3-1.4-3.9-1.6c-0.3,0-2.7,0-4.4,1.4c-0.3,0.3-26.6,27.8-26.6,27.8
			s-1.2,1.4-1.2,2.4V91c0,0-0.3,3.5,3.4,4h56.1c0,0,3.9-0.5,3.8-3.9c0-1.3,0-58.9,0-58.9S337.8,30.4,336.8,29.4z M333.9,87.5
			c0,0,0,2.6-2.2,2.6c-2.2,0-51.1,0-51.1,0s-2.7,0.3-2.7-2.8c0-3.1,0.1-53,0.1-53s-0.2-1.4,1.3-3c1.5-1.7,23.5-24.7,23.5-24.7
			s1.4-1.7,3.4-1.7c0,0,1.6-0.2,3.3,1.5c1.6,1.7,23.3,24.4,23.3,24.4s1.2,1.1,1.2,2.7C334,35,333.9,87.5,333.9,87.5z"/>
	</g>
</g>
</svg>
